<?xml version="1.0" encoding="UTF-8" standalone="no"?>
<svg xmlns:dc="http://purl.org/dc/elements/1.1/" xmlns:cc="http://creativecommons.org/ns#" xmlns:rdf="http://www.w3.org/1999/02/22-rdf-syntax-ns#" xmlns:svg="http://www.w3.org/2000/svg" xmlns="http://www.w3.org/2000/svg" xmlns:sodipodi="http://sodipodi.sourceforge.net/DTD/sodipodi-0.dtd" xmlns:inkscape="http://www.inkscape.org/namespaces/inkscape" width="32px" height="32px" viewBox="0 0 32 32.000001" id="svg2" version="1.1" inkscape:version="0.91 r13725" sodipodi:docname="2.svg">
  <defs id="defs4"/>
  <sodipodi:namedview id="base" pagecolor="#ffffff" bordercolor="#666666" borderopacity="1.0" inkscape:pageopacity="0.0" inkscape:pageshadow="2" inkscape:zoom="22.627417" inkscape:cx="16.06124" inkscape:cy="18.251257" inkscape:document-units="px" inkscape:current-layer="layer1" showgrid="true" units="px" inkscape:snap-bbox="true" inkscape:bbox-paths="true" inkscape:bbox-nodes="true" inkscape:snap-bbox-edge-midpoints="true" inkscape:snap-bbox-midpoints="true" inkscape:window-width="1920" inkscape:window-height="1027" inkscape:window-x="-8" inkscape:window-y="-8" inkscape:window-maximized="1">
    <inkscape:grid type="xygrid" id="grid3336"/>
  </sodipodi:namedview>
  
  <g inkscape:label="Layer 1" inkscape:groupmode="layer" id="layer1" transform="translate(0,-1020.3622)">
    <path style="color:#000000;font-style:normal;font-variant:normal;font-weight:normal;font-stretch:normal;font-size:medium;line-height:normal;font-family:sans-serif;text-indent:0;text-align:start;text-decoration:none;text-decoration-line:none;text-decoration-style:solid;text-decoration-color:#000000;letter-spacing:normal;word-spacing:normal;text-transform:none;direction:ltr;block-progression:tb;writing-mode:lr-tb;baseline-shift:baseline;text-anchor:start;white-space:normal;clip-rule:nonzero;display:inline;overflow:visible;visibility:visible;opacity:1;isolation:auto;mix-blend-mode:normal;color-interpolation:sRGB;color-interpolation-filters:linearRGB;solid-color:#000000;solid-opacity:1;fill:#000000;fill-opacity:1;fill-rule:nonzero;stroke:none;stroke-width:0.99999994;stroke-linecap:round;stroke-linejoin:round;stroke-miterlimit:4;stroke-dasharray:none;stroke-dashoffset:0;stroke-opacity:1;color-rendering:auto;image-rendering:auto;shape-rendering:auto;text-rendering:auto;enable-background:accumulate" d="M 21.3125 1.9433594 L 21.3125 5.8183594 L 4.375 5.8183594 L 2.4375 5.8183594 C 1.095813 5.8183594 0 6.9142594 0 8.2558594 L 0 26.660156 A 0.50004997 0.50004997 0 0 0 0.01171875 26.771484 C 0.071759259 28.060523 1.134071 29.095703 2.4375 29.095703 L 3.90625 29.095703 L 3.90625 25.222656 L 20.84375 25.222656 L 22.78125 25.222656 C 24.122968 25.222656 25.21875 24.126756 25.21875 22.785156 L 25.21875 6.3183594 L 25.21875 4.3808594 C 25.21875 3.0391594 24.122937 1.9433594 22.78125 1.9433594 L 21.3125 1.9433594 z M 22.3125 2.9433594 L 22.78125 2.9433594 C 23.586311 2.9433594 24.21875 3.5759594 24.21875 4.3808594 L 24.21875 6.3183594 L 24.21875 20.943359 C 23.806334 20.623659 23.340935 20.347656 22.78125 20.347656 L 22.3125 20.347656 L 22.3125 2.9433594 z M 26.65625 6.7871094 A 0.50004997 0.50004997 0 0 0 26.15625 7.2871094 L 26.15625 24.722656 A 0.50004997 0.50004997 0 0 0 26.65625 25.222656 L 31.5 25.222656 A 0.50004997 0.50004997 0 0 0 32 24.722656 L 32 7.2871094 A 0.50004997 0.50004997 0 0 0 31.5 6.7871094 L 26.65625 6.7871094 z M 2.4375 6.8183594 L 4.375 6.8183594 L 21.3125 6.8183594 L 21.3125 21.347656 L 22.78125 21.347656 C 23.586311 21.347656 24.21875 21.980256 24.21875 22.785156 C 24.21875 23.589956 23.58628 24.222656 22.78125 24.222656 L 20.84375 24.222656 L 2.6972656 24.222656 L 2.4375 24.222656 C 1.8991252 24.222656 1.4042812 24.40319 1 24.701172 L 1 8.2558594 C 1 7.4510594 1.6324384 6.8183594 2.4375 6.8183594 z M 27.15625 7.7871094 L 31 7.7871094 L 31 24.222656 L 27.15625 24.222656 L 27.15625 23.285156 L 29.078125 23.285156 L 29.078125 22.285156 L 27.15625 22.285156 L 27.15625 21.347656 L 28.109375 21.347656 L 28.109375 20.347656 L 27.15625 20.347656 L 27.15625 19.410156 L 29.078125 19.410156 L 29.078125 18.410156 L 27.15625 18.410156 L 27.15625 17.472656 L 28.109375 17.472656 L 28.109375 16.472656 L 27.15625 16.472656 L 27.15625 15.535156 L 29.078125 15.535156 L 29.078125 14.535156 L 27.15625 14.535156 L 27.15625 13.597656 L 28.109375 13.597656 L 28.109375 12.597656 L 27.15625 12.597656 L 27.15625 11.662109 L 29.078125 11.662109 L 29.078125 10.662109 L 27.15625 10.662109 L 27.15625 9.7246094 L 28.109375 9.7246094 L 28.109375 8.7246094 L 27.15625 8.7246094 L 27.15625 7.7871094 z M 4.375 8.7246094 A 0.50004997 0.50004997 0 0 0 3.875 9.2246094 L 3.875 21.816406 A 0.50004997 0.50004997 0 0 0 4.375 22.316406 L 18.90625 22.316406 A 0.50004997 0.50004997 0 0 0 19.40625 21.816406 L 19.40625 9.2246094 A 0.50004997 0.50004997 0 0 0 18.90625 8.7246094 L 8.734375 8.7246094 L 8.734375 9.7246094 L 10.65625 9.7246094 L 10.65625 12.615234 L 11.65625 12.615234 L 11.65625 9.7246094 L 18.40625 9.7246094 L 18.40625 15.503906 L 15.53125 15.503906 L 15.53125 11.646484 L 14.53125 11.646484 L 14.53125 15.503906 L 12.609375 15.503906 L 12.609375 16.503906 L 18.40625 16.503906 L 18.40625 21.316406 L 17.46875 21.316406 L 17.46875 17.941406 A 0.50004997 0.50004997 0 0 0 16.96875 17.441406 L 13.09375 17.441406 A 0.50004997 0.50004997 0 0 0 12.59375 17.941406 L 12.59375 21.316406 L 11.65625 21.316406 L 11.65625 14.599609 L 10.65625 14.599609 L 10.65625 21.316406 L 4.875 21.316406 L 4.875 17.472656 L 8.734375 17.472656 L 8.734375 16.472656 L 4.875 16.472656 L 4.875 9.7246094 L 6.796875 9.7246094 L 6.796875 8.7246094 L 4.375 8.7246094 z M 13.59375 18.441406 L 16.46875 18.441406 L 16.46875 21.316406 L 13.59375 21.316406 L 13.59375 18.441406 z M 2.4375 25.222656 L 2.6972656 25.222656 L 2.90625 25.222656 L 2.90625 28.095703 L 2.4375 28.095703 C 1.6324384 28.095703 1 27.465056 1 26.660156 C 1 25.855356 1.6324384 25.222656 2.4375 25.222656 z M 18.414062 26.150391 L 10.179688 26.179688 A 0.50004991 0.50004991 0 0 0 10.115234 26.185547 A 0.50004991 0.50004991 0 0 0 10.080078 26.191406 A 0.50005006 0.50005006 0 0 0 10.041016 26.201172 A 0.50004991 0.50004991 0 0 0 10.025391 26.205078 A 0.50005006 0.50005006 0 0 0 10.007812 26.210938 A 0.50004991 0.50004991 0 0 0 9.984375 26.220703 A 0.50005006 0.50005006 0 0 0 9.9570312 26.234375 A 0.50004991 0.50004991 0 0 0 9.9335938 26.246094 L 7.0546875 27.693359 A 0.50005006 0.50005006 0 0 0 7.0585938 28.587891 L 9.9726562 30.027344 A 0.50005006 0.50005006 0 0 0 10.314453 30.0625 L 18.425781 30.0625 A 0.50004991 0.50004991 0 0 0 18.541016 30.048828 L 19.412109 30.048828 C 20.315046 30.048828 21.093391 29.348678 21.089844 28.455078 L 21.085938 27.730469 C 21.082338 26.833269 20.297684 26.148391 19.402344 26.150391 L 18.416016 26.150391 A 0.50004991 0.50004991 0 0 0 18.414062 26.150391 z M 17.917969 27.150391 L 17.917969 27.152344 L 17.919922 27.632812 L 10.685547 27.615234 L 10.683594 27.177734 L 17.917969 27.150391 z M 18.917969 27.150391 L 19.402344 27.150391 C 19.798308 27.150391 20.084716 27.427975 20.085938 27.734375 L 20.089844 28.458984 C 20.091044 28.769684 19.816701 29.048828 19.412109 29.048828 L 18.923828 29.048828 L 18.921875 28.160156 L 18.917969 27.150391 z M 9.6855469 27.490234 L 9.6875 28.097656 L 9.6894531 28.773438 L 8.4003906 28.134766 L 9.6855469 27.490234 z M 10.689453 28.615234 L 17.921875 28.632812 L 17.923828 29.0625 L 10.691406 29.0625 L 10.689453 28.615234 z " transform="translate(0,1020.3622)" id="path6183"/>
  </g>

	
	
	<metadata>
		<rdf:RDF xmlns:rdf="http://www.w3.org/1999/02/22-rdf-syntax-ns#" xmlns:rdfs="http://www.w3.org/2000/01/rdf-schema#" xmlns:dc="http://purl.org/dc/elements/1.1/">
			<rdf:Description about="https://iconscout.com/legal#licenses" dc:title="Architecture, Design, Interior, Plan, Construct" dc:description="Architecture, Design, Interior, Plan, Construct" dc:publisher="Iconscout" dc:date="2016-12-14" dc:format="image/svg+xml" dc:language="en">
				<dc:creator>
					<rdf:Bag>
						<rdf:li>Jemis Mali</rdf:li>
					</rdf:Bag>
				</dc:creator>
			</rdf:Description>
		</rdf:RDF>
    </metadata></svg>
